<svg width="15" height="15" viewBox="0 0 15 15" fill="none" xmlns="http://www.w3.org/2000/svg">
<path d="M7.60712 3.07674L8.3904 4.56795C8.49772 4.77264 8.77102 4.96932 8.99743 4.99838L10.3449 5.18923C11.2077 5.30951 11.4227 5.93872 10.8264 6.58706L9.81057 7.68536C9.64098 7.86942 9.54972 8.22359 9.61388 8.46833L9.94858 9.78131C10.2118 10.8179 9.68133 11.2392 8.76488 10.7198L7.48466 9.99407C7.2515 9.86141 6.87835 9.8754 6.65596 10.018L5.41866 10.8132C4.53294 11.3816 3.97871 10.9926 4.18462 9.94335L4.4481 8.61551C4.49729 8.3673 4.39115 8.01866 4.21091 7.84547L3.12953 6.80634C2.49848 6.19519 2.67829 5.55494 3.5315 5.38388L4.86371 5.11777C5.08857 5.07095 5.35106 4.86442 5.44496 4.65203L6.145 3.11527C6.52749 2.28736 7.18425 2.26968 7.60712 3.07674Z" fill="black"/>
</svg>
